# xmcd
#
# Track frame offsets:
#	150
#	22672
#	38833
#	57730
#	78772
#	101293
#	126170
#	143183
#	168456
#	185836
#	201846
#	224616
#	243289
#
# Disc length: 3603 seconds
# Revision: 0
# Processed by: cddbd v1.5.2PL0 Copyright (c) Steve Scherf et al.
# Submitted via: dBpowerAMP V12.0
#
DISCID=b50e110d
DTITLE=Zoe Schwartz Blue Commotion - Blue Commotion
DYEAR=2011
DGENRE=Blues
TTITLE0=Blue Before Sunrise
TTITLE1=No Good Man
TTITLE2=Ain't That Fine
TTITLE3=Going Down Slow
TTITLE4=Since I Fell For You
TTITLE5=I Can't Quit You Babe
TTITLE6=If I Didn't Care
TTITLE7=She Was Just A Name
TTITLE8=Too Darn Rich To Be Happy
TTITLE9=He's Funny That Way
TTITLE10=Stormy Blues
TTITLE11=I'm Ready
TTITLE12=Sitting On Top Of The World
EXTD=
EXTT0=
EXTT1=
EXTT2=
EXTT3=
EXTT4=
EXTT5=
EXTT6=
EXTT7=
EXTT8=
EXTT9=
EXTT10=
EXTT11=
EXTT12=
PLAYORDER=
